<?xml version="1.0" encoding="UTF-8" standalone="no"?>
<svg
   style="height: 512px; width: 512px;"
   viewBox="0 0 512 512"
   version="1.1"
   id="svg1"
   sodipodi:docname="logo.svg"
   inkscape:version="1.3.2 (091e20ef0f, 2023-11-25, custom)"
   xmlns:inkscape="http://www.inkscape.org/namespaces/inkscape"
   xmlns:sodipodi="http://sodipodi.sourceforge.net/DTD/sodipodi-0.dtd"
   xmlns="http://www.w3.org/2000/svg"
   xmlns:svg="http://www.w3.org/2000/svg">
  <sodipodi:namedview
     id="namedview1"
     pagecolor="#ffffff"
     bordercolor="#999999"
     borderopacity="1"
     inkscape:showpageshadow="0"
     inkscape:pageopacity="0"
     inkscape:pagecheckerboard="0"
     inkscape:deskcolor="#d1d1d1"
     inkscape:zoom="1.5722656"
     inkscape:cx="256"
     inkscape:cy="258.22609"
     inkscape:window-width="1920"
     inkscape:window-height="1050"
     inkscape:window-x="0"
     inkscape:window-y="0"
     inkscape:window-maximized="1"
     inkscape:current-layer="svg1" />
  <defs
     id="defs1">
    <rect
       x="113.91374"
       y="134.27321"
       width="335.98016"
       height="185.05225"
       id="rect1" />
  </defs>
  <g
     class=""
     transform="translate(0,0)"
     id="g1"
     style="fill:#668000">
    <path
       d="m 134.594,73.375 c -17.522,5.65 -31.232,11.854 -48.125,24.25 -2.19,2.097 -4.337,4.22 -6.44,6.406 0.24,0.566 0.61,1.265 1.157,2.25 1.016,1.832 2.767,4.023 4.97,6.19 -3.454,5.536 -6.596,11.072 -9.5,16.624 -3.664,-3.04 -6.952,-6.423 -9.594,-10.22 -7.617,9.505 -14.475,19.678 -20.438,30.44 0.395,1.636 1.557,3.42 3.78,5.81 2.656,2.853 6.805,5.8 11.626,8.314 -2.024,6.117 -3.76,12.204 -5.186,18.28 -7.44,-3.38 -14.245,-7.768 -19.594,-13.343 -5.94,13.804 -10.473,28.42 -13.406,43.656 1.335,2.434 3.714,4.663 7.312,7.032 5.072,3.34 12.36,6.076 20.282,7.657 -0.045,6.437 0.25,12.822 0.812,19.124 -11.407,-1.673 -22.405,-5.248 -31.375,-11.156 -0.05,-0.034 -0.106,-0.06 -0.156,-0.094 -1.31,15.59 -0.872,30.96 1.093,45.906 2.31,3.48 6.176,5.957 11.937,7.938 7.406,2.546 17.472,3.344 27.72,2.312 2,6.122 4.275,12.13 6.81,18 -13.97,2.098 -28.237,1.622 -40.593,-2.625 -0.337,-0.116 -0.665,-0.252 -1,-0.375 3.978,15.49 9.66,30.37 16.844,44.406 3.553,2.804 8.35,4.216 14.72,4.656 9.3,0.644 21.144,-1.73 32.438,-6.343 3.712,5.257 7.63,10.34 11.75,15.25 -14.57,6.715 -30.36,10.675 -45.063,9.75 9.952,14.602 21.638,27.964 34.844,39.75 4.26,1.446 9.3,1.465 15.374,0.28 9.6,-1.873 20.855,-7.404 31.03,-15 0.008,0.005 0.026,-0.005 0.032,0 5.154,3.978 10.476,7.75 15.906,11.25 -11.976,9.91 -25.625,17.696 -39.53,21.22 11.654,7.88 24.148,14.67 37.343,20.186 4.937,0.423 10.29,-0.96 16.344,-3.906 7.672,-3.735 15.78,-10.252 23.03,-18.28 17.036,6.783 34.732,11.22 52.563,12.905 l 1.78,-18.625 c -14.268,-1.35 -28.584,-4.77 -42.562,-9.938 6.883,-11.108 11.61,-23.173 12.94,-33.437 1.178,-9.114 0.083,-16.157 -3.782,-21.438 -8.08,-1.58 -15.89,-3.94 -23.375,-7 -0.172,6.47 -1.706,12.987 -4.22,19.094 -3.745,9.103 -9.52,17.798 -16.53,25.72 -5.353,-3.288 -10.565,-6.832 -15.657,-10.625 6.62,-7.182 11.923,-14.97 14.906,-22.22 3.806,-9.246 4.173,-16.578 0.625,-22.81 -7.748,-4.957 -15.003,-10.737 -21.718,-17.22 -1.773,4.3 -4.187,8.37 -7.032,12.094 -5.476,7.165 -12.572,13.51 -20.563,18.905 -4.12,-4.72 -8.052,-9.603 -11.75,-14.688 7.152,-4.694 13.296,-10.1 17.47,-15.562 5.038,-6.594 7.22,-12.41 6.468,-18.094 -4.976,-6.553 -9.494,-13.582 -13.5,-21 -2.285,2.686 -4.86,5.14 -7.657,7.283 -6.758,5.175 -14.798,9.155 -23.406,12.03 -2.595,-5.69 -4.957,-11.498 -7,-17.437 7.427,-2.405 14.13,-5.683 19.03,-9.437 5.696,-4.362 8.802,-8.545 9.532,-13.25 -3.03,-7.998 -5.508,-16.32 -7.406,-24.908 -1.878,1.075 -3.82,2.024 -5.812,2.813 -7.45,2.947 -15.75,4.434 -24.28,4.75 -0.662,-6.16 -1.027,-12.403 -1.033,-18.72 6.957,-0.263 13.464,-1.437 18.44,-3.405 4.6,-1.82 7.595,-3.8 9.343,-6.25 -1.018,-9.72 -1.33,-19.69 -0.813,-29.813 -0.65,0.104 -1.29,0.18 -1.938,0.25 -6.624,0.725 -13.556,0.15 -20.406,-1.343 1.37,-5.98 3.07,-12.01 5.094,-18.063 4.87,0.933 9.538,1.223 13.28,0.814 2.614,-0.286 4.532,-0.756 6,-1.406 1.395,-8.93 3.407,-17.644 5.97,-26.032 -4.182,-0.736 -8.284,-2.092 -12.25,-3.875 2.834,-5.457 5.926,-10.928 9.344,-16.405 2.414,0.963 4.716,1.665 6.687,1.97 1.107,0.17 2.023,0.265 2.782,0.28 1.946,-4.64 4.022,-9.17 6.282,-13.563 5.898,-11.802 12.415,-24.25 17,-37.937 z m 244.375,0 c 4.583,13.686 11.1,26.135 17,37.938 2.26,4.393 4.366,8.923 6.31,13.562 0.752,-0.016 1.66,-0.113 2.75,-0.28 1.98,-0.306 4.296,-1 6.72,-1.97 3.418,5.477 6.51,10.948 9.344,16.406 -3.976,1.786 -8.096,3.14 -12.28,3.876 2.563,8.39 4.573,17.1 5.967,26.03 1.474,0.658 3.404,1.12 6.033,1.408 3.742,0.41 8.41,0.12 13.28,-0.813 2.026,6.063 3.692,12.104 5.063,18.095 -6.837,1.487 -13.762,2.036 -20.375,1.313 -0.656,-0.072 -1.308,-0.145 -1.967,-0.25 0.517,10.124 0.236,20.092 -0.782,29.812 1.75,2.45 4.745,4.43 9.345,6.25 4.967,1.965 11.462,3.14 18.406,3.406 -0.006,6.316 -0.37,12.56 -1.03,18.72 -8.52,-0.32 -16.808,-1.808 -24.25,-4.75 -1.994,-0.79 -3.933,-1.74 -5.813,-2.814 -1.895,8.575 -4.383,16.89 -7.406,24.875 0.715,4.72 3.795,8.912 9.5,13.282 4.904,3.753 11.605,7.03 19.033,9.436 -2.044,5.94 -4.405,11.747 -7,17.438 -8.598,-2.875 -16.624,-6.862 -23.375,-12.03 -2.804,-2.148 -5.4,-4.592 -7.688,-7.283 -4.01,7.422 -8.52,14.444 -13.5,21 -0.76,5.682 1.43,11.502 6.47,18.095 4.168,5.457 10.313,10.87 17.467,15.563 -3.697,5.085 -7.63,9.966 -11.75,14.687 -7.99,-5.396 -15.086,-11.74 -20.562,-18.906 -2.838,-3.715 -5.234,-7.778 -7,-12.064 -6.71,6.478 -13.976,12.236 -21.72,17.188 -3.547,6.233 -3.18,13.565 0.626,22.812 2.985,7.25 8.288,15.037 14.908,22.22 -5.095,3.795 -10.333,7.334 -15.688,10.624 -7.003,-7.922 -12.754,-16.617 -16.5,-25.72 -2.513,-6.106 -4.047,-12.623 -4.22,-19.092 -7.497,3.064 -15.313,5.418 -23.405,7 -3.873,5.28 -4.96,12.324 -3.78,21.437 1.327,10.264 6.08,22.33 12.967,33.438 -13.974,5.168 -28.293,8.587 -42.562,9.937 l 1.75,18.625 c 17.84,-1.687 35.546,-6.116 52.594,-12.906 7.25,8.028 15.358,14.545 23.03,18.28 6.056,2.947 11.408,4.33 16.345,3.906 13.2,-5.517 25.684,-12.302 37.342,-20.187 -13.896,-3.52 -27.562,-11.293 -39.53,-21.19 5.442,-3.504 10.74,-7.293 15.906,-11.28 10.18,7.604 21.456,13.126 31.062,15 6.056,1.182 11.09,1.185 15.344,-0.25 13.212,-11.788 24.92,-25.172 34.875,-39.78 -14.705,0.925 -30.526,-3.035 -45.095,-9.75 4.12,-4.913 8.066,-9.99 11.78,-15.25 11.295,4.61 23.138,6.986 32.44,6.342 6.368,-0.44 11.166,-1.852 14.717,-4.656 7.183,-14.036 12.867,-28.917 16.844,-44.406 -0.335,0.123 -0.663,0.26 -1,0.375 -12.355,4.247 -26.623,4.723 -40.594,2.625 2.536,-5.87 4.813,-11.878 6.813,-18 10.236,1.027 20.29,0.23 27.688,-2.313 5.765,-1.98 9.65,-4.455 11.968,-7.937 1.965,-14.946 2.372,-30.318 1.064,-45.906 -0.043,0.028 -0.082,0.065 -0.125,0.094 -8.97,5.908 -19.97,9.483 -31.376,11.156 0.563,-6.302 0.856,-12.687 0.812,-19.125 7.92,-1.582 15.21,-4.317 20.28,-7.657 3.593,-2.366 5.946,-4.604 7.283,-7.032 -2.934,-15.234 -7.47,-29.852 -13.408,-43.655 -5.347,5.57 -12.133,9.96 -19.562,13.344 -1.427,-6.078 -3.162,-12.165 -5.188,-18.282 4.805,-2.513 8.942,-5.464 11.594,-8.313 2.212,-2.376 3.402,-4.15 3.813,-5.78 -5.97,-10.774 -12.814,-20.955 -20.44,-30.47 -2.642,3.796 -5.93,7.18 -9.592,10.22 -2.905,-5.553 -6.047,-11.09 -9.5,-16.626 2.208,-2.166 3.953,-4.36 4.968,-6.19 0.538,-0.97 0.92,-1.656 1.156,-2.218 -2.106,-2.193 -4.275,-4.334 -6.468,-6.437 -16.893,-12.396 -30.603,-18.6 -48.125,-24.25 z"
       fill="#7ed321"
       fill-opacity="1"
       id="path1"
       style="fill:#668000" />
  </g>
  <path
     d="m 147.37298,166.78873 q 0,11.77604 3.9375,17.02605 3.93751,5.25 12.32293,5.25 8.34896,0 12.32292,-5.21355 3.97396,-5.21354 3.97396,-17.0625 0,-11.77605 -4.01042,-16.91668 -3.97396,-5.17708 -12.28646,-5.17708 -8.38542,0 -12.32293,5.21354 -3.9375,5.17708 -3.9375,16.88022 z m -7.61979,0 q 0,-25.01043 23.88022,-25.01043 11.73959,0 17.82813,6.34375 6.08855,6.30729 6.08855,18.66668 0,17.90105 -12.94272,23.22396 l 1.82292,2.26042 q 3.20833,4.01042 5.46875,5.72396 2.26042,1.71355 4.44792,1.71355 l 2.98958,-0.14584 v 2.40625 q -0.83854,0.36459 -3.17187,0.83855 -2.29688,0.51041 -4.01042,0.51041 -2.58854,0 -4.59375,-0.875 -2.00521,-0.83854 -4.04688,-2.73437 -2.04167,-1.85938 -6.81771,-7.91147 -1.3125,0.14584 -3.0625,0.14584 -11.70313,0 -17.79168,-6.38021 -6.08854,-6.41667 -6.08854,-18.77605 z m 64.6042,21.07292 q 0,1.78646 -1.27605,3.09896 -1.23958,1.3125 -3.13541,1.3125 -1.89584,0 -3.17188,-1.3125 -1.23958,-1.3125 -1.23958,-3.09896 0,-1.85937 1.27604,-3.13542 1.27604,-1.27604 3.13542,-1.27604 1.85937,0 3.13541,1.27604 1.27605,1.27605 1.27605,3.13542 z m 48.23439,-21.43751 q 0,-10.24479 -5.54167,-15.53126 -5.50521,-5.28646 -15.75,-5.28646 h -6.56251 v 42.18232 q 4.37501,0.29166 10.39063,0.29166 8.96876,0 13.19793,-5.28646 4.26562,-5.28646 4.26562,-16.3698 z m -18.95834,-24.09897 q 13.52605,0 20.05209,6.05209 6.52605,6.01563 6.52605,18.1198 0,12.25 -6.3073,18.5573 -6.27083,6.30729 -18.77605,6.30729 l -17.42709,-0.14583 h -6.27083 v -1.93229 l 6.27083,-0.98438 v -43.09377 l -6.27083,-0.94792 v -1.93229 z m 43.31253,45.53648 q 0,1.78646 -1.27605,3.09896 -1.23958,1.3125 -3.13541,1.3125 -1.89584,0 -3.17188,-1.3125 -1.23958,-1.3125 -1.23958,-3.09896 0,-1.85937 1.27604,-3.13542 1.27604,-1.27604 3.13542,-1.27604 1.85937,0 3.13541,1.27604 1.27605,1.27605 1.27605,3.13542 z m 36.34897,3.35417 h -1.27604 l -17.90105,-42.03648 v 39.11981 l 6.5625,0.98438 v 1.93229 h -16.66147 v -1.93229 l 6.27084,-0.98438 v -43.09377 l -6.27084,-0.94792 v -1.93229 h 14.80209 l 15.89584,37.18752 17.35418,-37.18752 H 346.071 v 1.93229 l -6.27084,0.94792 v 43.09377 l 6.27084,0.98438 v 1.93229 h -19.83335 v -1.93229 l 6.56251,-0.98438 v -39.11981 z m 48.70835,-3.35417 q 0,1.78646 -1.27604,3.09896 -1.23958,1.3125 -3.13542,1.3125 -1.89583,0 -3.17187,-1.3125 -1.23959,-1.3125 -1.23959,-3.09896 0,-1.85937 1.27605,-3.13542 1.27604,-1.27604 3.13541,-1.27604 1.85938,0 3.13542,1.27604 1.27604,1.27605 1.27604,3.13542 z m 9.98959,-9.80729 h 2.36979 l 1.27604,6.59896 q 1.34896,1.71354 4.63021,3.02604 3.31771,1.3125 6.52605,1.3125 5.10417,0 7.94792,-2.58854 2.88021,-2.625 2.88021,-7.21876 0,-2.625 -1.13021,-4.33854 -1.09375,-1.71354 -2.91667,-2.88021 -1.78646,-1.20312 -4.08333,-2.00521 -2.29688,-0.83854 -4.73959,-1.67708 -2.40625,-0.83854 -4.70313,-1.85938 -2.29687,-1.02083 -4.11979,-2.58854 -1.78646,-1.56771 -2.91667,-3.86459 -1.09375,-2.33333 -1.09375,-5.72396 0,-5.83333 4.375,-9.15104 4.37501,-3.31771 12.14063,-3.31771 5.90626,0 12.83334,1.56771 v 10.17188 h -2.36979 l -1.27604,-5.97917 q -3.71875,-2.69792 -9.18751,-2.69792 -4.88541,0 -7.65625,2.00521 -2.73438,1.96875 -2.73438,5.46875 0,2.36979 1.09376,3.9375 1.1302,1.56771 2.91666,2.69792 1.82292,1.09375 4.1198,1.89583 2.33333,0.80209 4.73958,1.67709 2.44271,0.83854 4.73959,1.93229 2.33333,1.05729 4.11979,2.73438 1.82292,1.64062 2.91667,4.04687 1.13021,2.3698 1.13021,5.8698 0,7.07292 -4.33855,10.97396 -4.33854,3.86459 -12.50521,3.86459 -3.9375,0 -7.91146,-0.69271 -3.97396,-0.69271 -7.07292,-1.89584 z m 50.20316,9.80729 q 0,1.78646 -1.27604,3.09896 -1.23958,1.3125 -3.13542,1.3125 -1.89583,0 -3.17187,-1.3125 -1.23959,-1.3125 -1.23959,-3.09896 0,-1.85937 1.27604,-3.13542 1.27605,-1.27604 3.13542,-1.27604 1.85938,0 3.13542,1.27604 1.27604,1.27605 1.27604,3.13542 z"
     id="text1"
     style="font-size:74.6667px;line-height:1;font-family:'Liberation Serif';-inkscape-font-specification:'Liberation Serif, Normal';text-align:center;letter-spacing:0px;word-spacing:0px;white-space:pre;fill:#668000;stroke:#88121e;stroke-width:11.8791;stroke-opacity:0"
     transform="translate(-24.186729,47.752362)"
     aria-label="Q.D.M.S." />
</svg>
