<?xml version="1.0" encoding="UTF-8" standalone="no"?>
<svg
   style="height: 512px; width: 512px;"
   viewBox="0 0 512 512"
   version="1.1"
   id="svg1"
   xml:space="preserve"
   sodipodi:docname="dPercent.svg"
   inkscape:version="1.3.2 (091e20ef0f, 2023-11-25, custom)"
   xmlns:inkscape="http://www.inkscape.org/namespaces/inkscape"
   xmlns:sodipodi="http://sodipodi.sourceforge.net/DTD/sodipodi-0.dtd"
   xmlns="http://www.w3.org/2000/svg"
   xmlns:svg="http://www.w3.org/2000/svg"><sodipodi:namedview
     id="namedview1"
     pagecolor="#ffffff"
     bordercolor="#999999"
     borderopacity="1"
     inkscape:showpageshadow="0"
     inkscape:pageopacity="0"
     inkscape:pagecheckerboard="0"
     inkscape:deskcolor="#d1d1d1"
     inkscape:zoom="1.1117597"
     inkscape:cx="258.59905"
     inkscape:cy="334.60468"
     inkscape:window-width="1920"
     inkscape:window-height="1050"
     inkscape:window-x="0"
     inkscape:window-y="0"
     inkscape:window-maximized="1"
     inkscape:current-layer="svg1" /><defs
     id="defs1" /><path
     style="fill:#000000"
     d="m 306.13333,501.01942 c 0,-1.17632 34.19186,-128.10018 34.62559,-128.53391 0.71057,-0.71056 94.15543,-17.24487 97.59109,-17.26794 3.19773,-0.0215 58.81289,29.95434 58.34279,31.44597 -0.47603,1.51049 -190.55947,115.58069 -190.55947,114.35588 z M 401.06266,436.368 c -0.002,-0.34907 -2.10069,-1.49678 -4.66331,-2.55047 -9.29029,-3.81993 -9.28955,-4.0572 0.0296,-9.47419 7.99519,-4.64742 19.57107,-13.98968 19.57107,-15.79474 0,-3.07025 -3.98561,-1.71506 -9.05421,3.07861 -5.93141,5.60968 -15.48578,12.12639 -21.4049,14.59956 -7.59805,3.17466 -6.94861,5.38293 2.93247,9.97126 8.62578,4.00543 12.61381,4.05927 12.58931,0.16997 z m -29.1343,-13.91276 c 15.34332,-9.35551 22.06496,-33.05443 10.59097,-37.34129 -8.83929,-3.3025 -28.03022,22.511 -23.98901,32.26734 2.51201,6.06452 8.22511,8.22812 13.39804,5.07395 z m -8.21695,-6.4962 c -2.18747,-4.08732 9.24795,-23.21429 14.9637,-25.0284 6.93821,-2.2021 6.90082,5.46774 -0.0775,15.90121 -7.44972,11.13826 -12.23851,14.07442 -14.88619,9.12719 z m -76.53764,71.77428 c -28.42467,-50.73777 -84.71008,-152.94306 -84.3864,-153.23218 0.22695,-0.20271 11.61591,3.89319 25.30881,9.10199 29.3344,11.15886 25.40586,12.16004 32.1931,-8.20432 3.61389,-10.84306 5.99409,-16.46827 6.87857,-16.25629 2.35302,0.56394 61.22651,49.34071 60.90209,50.45747 -0.17043,0.58667 -7.93588,29.50503 -17.25657,64.26302 -9.32069,34.758 -17.27613,63.19799 -17.67876,63.2 -0.40263,0.002 -3.085,-4.19636 -5.96084,-9.32969 z m -23.40032,-83.91418 c 4.54756,-3.44942 4.36808,-14.01293 -0.45719,-26.90962 -6.3877,-17.07267 -23.43157,-16.66687 -21.91663,0.52181 1.78049,20.20177 13.03299,33.47303 22.37382,26.38781 z m -10.15486,-5.63728 c -3.70085,-4.08939 -8.02875,-22.40831 -6.13155,-25.95327 4.36969,-8.16483 13.00683,5.44636 13.22305,20.83807 0.0998,7.10622 -3.16103,9.45832 -7.0915,5.1152 z m 43.35778,4.05124 c 2.6709,-2.95131 1.9212,-9.05762 -1.166,-9.4972 -1.85233,-0.26375 -2.3926,0.27652 -2.66667,2.66667 -0.26851,2.3417 -0.96284,3.06908 -3.1739,3.32499 -5.67404,0.65671 -9.01529,-9.72282 -3.5698,-11.08955 1.46667,-0.36811 2.65932,-0.97725 2.65033,-1.35365 -0.0352,-1.47513 -1.68864,-3.09623 -3.84299,-3.76783 -4.9795,-1.55233 -8.03486,-8.16962 -5.42087,-11.74049 2.08882,-2.85346 6.64055,-1.51587 8.75485,2.57274 1.60478,3.1033 5.85868,4.53886 5.85868,1.97712 0,-2.64058 -4.50056,-8.26049 -7.91135,-9.87901 -11.95091,-5.67108 -18.592,8.69276 -8.27019,17.88736 1.71088,1.52405 2.00019,2.46065 1.21388,3.92988 -4.84192,9.04721 10.81419,22.40536 17.54403,14.96897 z m 178.70976,-42.37976 c -16.69404,-9.12812 -30.44609,-16.68263 -30.56009,-16.78781 -0.15665,-0.1445 -37.56742,-140.44455 -40.42358,-151.59886 l -0.54626,-2.13333 1.7029,2.13333 c 7.59653,9.51664 39.4443,76.26666 36.38834,76.26666 -4.58767,0 -4.21979,6.07292 0.80423,13.27624 1.36095,1.9513 2.07989,4.44477 1.89622,6.5766 -0.49054,5.69367 5.02786,14.48349 10.39299,16.55416 3.11284,1.20141 6.52578,0.25363 6.52578,-1.81221 0,-3.79191 2.92285,0.73111 23.23602,35.95699 25.72786,44.61573 27.07809,41.52309 -9.41655,21.56823 z M 304.46512,333.22509 c -17.56248,-14.43286 -32.35618,-26.64125 -32.87488,-27.12975 -0.5385,-0.50716 0.54576,-5.2075 2.52738,-10.95639 l 3.47048,-10.06819 54.22394,-54.21612 c 36.34047,-36.33523 54.41458,-53.70578 54.80196,-52.66871 1.47344,3.94453 45.29098,164.66463 44.97822,164.97739 -0.52544,0.52544 -90.41791,16.2704 -92.99377,16.28816 -1.31334,0.009 -15.08436,-10.57192 -34.13333,-26.22639 z m 76.99739,-36.81312 c 9.73202,-9.14276 10.27489,-29.64596 0.88878,-33.56773 -10.51183,-4.39212 -19.68463,6.83667 -19.68463,24.09676 0,10.84328 11.2832,16.52873 18.79585,9.47097 z m -11.94895,-4.66086 c -3.58514,-5.47161 3.04004,-25.08444 8.47348,-25.08444 4.09369,0 5.30932,2.46401 4.67373,9.47336 -1.27882,14.10313 -8.50959,22.68899 -13.14721,15.61108 z m -22.79947,-2.17564 c 14.41795,-7.45581 12.85916,-35.83826 -1.98512,-36.14509 -14.20248,-0.29357 -20.90831,32.68043 -7.43627,36.56572 4.99358,1.44013 5.90146,1.3996 9.42139,-0.42063 z m -8.84743,-4.86091 c -5.29443,-3.08373 1.54174,-26.58123 7.73334,-26.58123 5.54297,0 6.54664,5.41462 3.09327,16.68764 -3.16505,10.33186 -5.85453,12.78956 -10.82661,9.89359 z m -198.0917,17.77035 C 22.903604,257.03547 34.445552,266.09456 63.264102,242.4328 l 23.669242,-19.43388 49.599996,-0.0219 49.6,-0.0219 26.86797,57.32245 c 29.60703,63.16623 28.66735,61.07212 27.37948,61.01585 -0.50277,-0.022 -45.77539,-17.48578 -100.60583,-38.80848 z m 21.61135,-11.94687 c 10.0498,-5.08903 11.40283,-12.28655 3.65234,-19.42892 -4.53491,-4.17911 -9.96361,-0.0386 -6.20849,4.73531 3.88903,4.9441 -0.0825,9.72386 -7.1294,8.5803 -6.91373,-1.12194 -11.24018,-7.97798 -7.16742,-11.35806 3.75313,-3.11482 -2.14879,-7.27419 -6.86274,-4.83651 -6.23864,3.22613 -14.93015,0.5083 -17.164,-5.36716 -2.48159,-6.52707 6.28539,-10.59084 13.83158,-6.41138 2.78942,1.54492 9.28684,-1.66951 7.90243,-3.90953 -6.40284,-10.36001 -32.37393,-3.83802 -32.37393,8.12991 0,7.82096 13.61451,17.97776 21.95963,16.38249 2.00218,-0.38274 2.50661,0.1201 3.05549,3.04591 1.68834,8.99965 17.24557,15.12618 26.50451,10.43764 z m 63.30746,-14.22238 c -15.16509,-32.23639 -27.40509,-59.03859 -27.19999,-59.56045 0.20509,-0.52185 14.28676,-17.55265 31.29259,-37.84621 l 30.9197,-36.89738 31.25308,-6.07746 c 17.1892,-3.34261 31.47068,-5.85988 31.73662,-5.59393 0.39956,0.39956 -46.91211,140.74457 -64.20585,190.45977 -6.1609,17.71107 -1.89716,23.32325 -33.79615,-44.48434 z M 260.8,240.02283 c 7.04,-1.82712 13.64,-3.57206 14.66667,-3.87765 1.41346,-0.42071 1.86666,-1.70353 1.86666,-5.28373 0,-5.60641 0.39256,-5.54232 -12.6103,-2.05876 -5.46901,1.46519 -10.31451,2.66398 -10.76778,2.66398 -0.45328,0 1.23539,-5.16 3.75259,-11.46667 7.6817,-19.24594 11.70714,-44.92343 6.82549,-43.53854 -1.17333,0.33287 -3.02827,0.85691 -4.12208,1.16454 -1.66603,0.46856 -2.11079,2.06968 -2.74075,9.86666 -1.26433,15.64842 -5.12283,30.56193 -10.88506,42.07188 -3.16358,6.31919 -3.56567,15.14469 -0.65211,14.31311 1.02667,-0.29303 7.62667,-2.0277 14.66667,-3.85482 z m 191.17289,57.84188 c -2.24835,-2.4844 -4.19418,-7.74952 -3.51658,-9.51532 1.56891,-4.08851 9.14368,2.759 9.14368,8.26578 0,3.65098 -2.8759,4.28959 -5.6271,1.24954 z M 445.58175,280.8 c -2.79127,-3.09733 -3.46246,-7.59024 -1.26015,-8.43535 2.42112,-0.92907 6.87839,4.05726 6.87839,7.69483 0,3.14909 -3.08163,3.55527 -5.61824,0.74052 z M 27.746859,254.75556 c 0.211812,-5.5739 35.352478,-108.15588 37.142194,-108.4248 6.513635,-0.97874 3.616441,12.7447 -5.717355,27.08199 -6.210046,9.53902 -13.331788,26.38271 -11.801849,27.91264 0.272482,0.27249 5.027624,-1.01448 10.566982,-2.85992 l 10.071562,-3.35534 0.697852,-4.36413 c 0.89368,-5.58877 1.013965,-5.53118 -6.298204,-3.01542 -3.414768,1.17485 -6.373525,2.13609 -6.575015,2.13609 -1.159616,0 0.370605,-2.91179 6.750074,-12.8444 12.200443,-18.99568 15.020576,-37.84133 6.00146,-40.10498 -1.726024,-0.43321 -2.337315,-1.17898 -1.946262,-2.37443 0.313566,-0.95857 6.09492,-18.74954 12.847454,-39.5355 6.752534,-20.785955 12.510642,-38.025954 12.795796,-38.311108 0.782573,-0.782573 0.908282,-2.592164 -5.353589,77.065458 -3.223705,41.00893 -5.861281,75.38222 -5.861281,76.38507 0,1.08137 -10.438309,10.45667 -25.650456,23.0383 -23.177394,19.16951 -27.712474,22.70496 -27.669363,21.57048 z M 294.60194,236 l 6.52995,-18.93333 30.84057,-19.03792 c 16.96232,-10.47086 31.05617,-18.82233 31.31968,-18.55882 0.61828,0.61828 -73.06702,75.4634 -74.29399,75.4634 -0.50938,0 2.01232,-8.52 5.60379,-18.93333 z M 93.577887,206.66667 c 0.192226,-1.90667 3.432858,-39.64368 7.201403,-83.86003 3.76855,-44.216353 6.99675,-80.53821 7.17378,-80.71524 0.68776,-0.687759 137.9136,95.43302 137.9136,96.60253 0,0.68264 -13.2,17.02506 -29.33333,36.31648 L 187.2,210.08572 l -46.9858,0.0238 -46.985815,0.0238 z m 72.167353,-28.97675 c 17.75518,-5.34352 20.4888,-20.88639 7.85647,-44.67054 -17.07581,-32.15034 -52.15244,-20.09796 -40.72323,13.99255 7.81063,23.29719 19.89915,34.58067 32.86676,30.67799 z m -10.14596,-12.62325 c -8.29327,-8.9458 -16.50031,-31.645 -13.24033,-36.62037 6.87258,-10.48887 18.23153,-0.55764 26.10951,22.82778 4.93335,14.64444 -3.60046,23.79059 -12.86918,13.79259 z M 192.79814,85.199229 C 157.75393,60.429346 129.2963,39.948164 129.55897,39.685492 c 0.26268,-0.262673 18.75101,6.834806 41.08518,15.772175 l 40.60759,16.249761 -2.69253,2.495359 c -5.77517,5.352241 5.38427,16.45957 16.54027,16.463048 2.0107,6.27e-4 3.00321,0.8055 3.88985,3.154474 2.14699,5.688034 16.47313,12.846371 25.70973,12.846371 7.81241,0 14.28758,-5.2651 11.91871,-9.69136 -0.65484,-1.223579 -0.93301,-2.482297 -0.61815,-2.79715 0.56986,-0.569862 54.82627,20.65774 56.45542,22.08795 0.47027,0.41285 -13.20973,3.48865 -30.4,6.8351 -17.19027,3.34646 -32.21919,6.32065 -33.39759,6.60931 -1.56254,0.38277 -19.39135,-11.66691 -65.85931,-44.511301 z m 50.66071,13.39666 c -6.1611,-3.070205 -8.0746,-6.389274 -4.9857,-8.647937 5.14268,-3.760421 18.59352,1.812232 18.59352,7.703256 0,4.497982 -5.68525,4.892662 -13.60782,0.944681 z M 219.45858,84.547085 c -5.69751,-3.585387 -5.0774,-7.747074 1.15435,-7.747074 10.13684,0 16.34274,8.792339 6.58707,9.332375 -3.10661,0.17197 -5.8377,-0.387305 -7.74142,-1.585301 z"
     id="path1" /></svg>
