<?xml version="1.0" encoding="UTF-8" standalone="no"?>
<svg
   height="40px"
   viewBox="0 -960 960 960"
   width="40px"
   fill="#FFFFFF"
   version="1.1"
   id="svg1"
   sodipodi:docname="markdown.svg"
   inkscape:version="1.3.2 (091e20ef0f, 2023-11-25, custom)"
   xmlns:inkscape="http://www.inkscape.org/namespaces/inkscape"
   xmlns:sodipodi="http://sodipodi.sourceforge.net/DTD/sodipodi-0.dtd"
   xmlns="http://www.w3.org/2000/svg"
   xmlns:svg="http://www.w3.org/2000/svg">
  <defs
     id="defs1" />
  <sodipodi:namedview
     id="namedview1"
     pagecolor="#ffffff"
     bordercolor="#999999"
     borderopacity="1"
     inkscape:showpageshadow="0"
     inkscape:pageopacity="0"
     inkscape:pagecheckerboard="0"
     inkscape:deskcolor="#d1d1d1"
     inkscape:zoom="20.125"
     inkscape:cx="20"
     inkscape:cy="19.975155"
     inkscape:window-width="1920"
     inkscape:window-height="1050"
     inkscape:window-x="0"
     inkscape:window-y="0"
     inkscape:window-maximized="1"
     inkscape:current-layer="svg1" />
  <path
     d="m640-360 120-120-42-43-48 48v-125h-60v125l-48-48-42 43 120 120ZM146.67-160q-27 0-46.84-19.83Q80-199.67 80-226.67v-506.66q0-27 19.83-46.84Q119.67-800 146.67-800h666.66q27 0 46.84 19.83Q880-760.33 880-733.33v506.66q0 27-19.83 46.84Q840.33-160 813.33-160H146.67Zm0-66.67h666.66v-506.66H146.67v506.66Zm0 0v-506.66 506.66ZM219.33-360h53.34v-186.67h48.66V-422h53.34v-124.67H428V-360h53.33v-200q0-15-12.5-27.5t-27.5-12.5h-182q-15 0-27.5 12.5t-12.5 27.5v200Z"
     id="path1"
     style="fill:#000000" />
</svg>
