<?xml version="1.0" encoding="UTF-8" standalone="no"?>
<svg
   height="40px"
   viewBox="0 -960 960 960"
   width="40px"
   fill="#FFFFFF"
   version="1.1"
   id="svg1"
   sodipodi:docname="minify.svg"
   inkscape:version="1.3.2 (091e20ef0f, 2023-11-25, custom)"
   xmlns:inkscape="http://www.inkscape.org/namespaces/inkscape"
   xmlns:sodipodi="http://sodipodi.sourceforge.net/DTD/sodipodi-0.dtd"
   xmlns="http://www.w3.org/2000/svg"
   xmlns:svg="http://www.w3.org/2000/svg">
  <defs
     id="defs1" />
  <sodipodi:namedview
     id="namedview1"
     pagecolor="#ffffff"
     bordercolor="#999999"
     borderopacity="1"
     inkscape:showpageshadow="0"
     inkscape:pageopacity="0"
     inkscape:pagecheckerboard="0"
     inkscape:deskcolor="#d1d1d1"
     inkscape:zoom="20.125"
     inkscape:cx="20"
     inkscape:cy="19.975155"
     inkscape:window-width="1920"
     inkscape:window-height="1050"
     inkscape:window-x="0"
     inkscape:window-y="0"
     inkscape:window-maximized="1"
     inkscape:current-layer="svg1" />
  <path
     d="M792-120.67 532.67-380q-30 25.33-69.64 39.67Q423.39-326 378.67-326q-108.44 0-183.56-75.17Q120-476.33 120-583.33t75.17-182.17q75.16-75.17 182.5-75.17 107.33 0 182.16 75.17 74.84 75.17 74.84 182.27 0 43.23-14 82.9-14 39.66-40.67 73l260 258.66-48 48Zm-414-272q79.17 0 134.58-55.83Q568-504.33 568-583.33q0-79-55.42-134.84Q457.17-774 378-774q-79.72 0-135.53 55.83-55.8 55.84-55.8 134.84t55.8 134.83q55.81 55.83 135.53 55.83Zm-101.33-158v-66.66h200.66v66.66H276.67Z"
     id="path1"
     style="fill:#000000" />
</svg>
