<?xml version="1.0" encoding="UTF-8" standalone="no"?>
<svg
   height="24px"
   viewBox="0 -960 960 960"
   width="24px"
   fill="#FFFFFF"
   version="1.1"
   id="svg1"
   sodipodi:docname="split-tabs.svg"
   inkscape:version="1.3.2 (091e20ef0f, 2023-11-25, custom)"
   xmlns:inkscape="http://www.inkscape.org/namespaces/inkscape"
   xmlns:sodipodi="http://sodipodi.sourceforge.net/DTD/sodipodi-0.dtd"
   xmlns="http://www.w3.org/2000/svg"
   xmlns:svg="http://www.w3.org/2000/svg">
  <defs
     id="defs1" />
  <sodipodi:namedview
     id="namedview1"
     pagecolor="#ffffff"
     bordercolor="#999999"
     borderopacity="1"
     inkscape:showpageshadow="0"
     inkscape:pageopacity="0"
     inkscape:pagecheckerboard="0"
     inkscape:deskcolor="#d1d1d1"
     inkscape:zoom="33.541667"
     inkscape:cx="12"
     inkscape:cy="11.985093"
     inkscape:window-width="1920"
     inkscape:window-height="1050"
     inkscape:window-x="0"
     inkscape:window-y="0"
     inkscape:window-maximized="1"
     inkscape:current-layer="svg1" />
  <path
     d="M760-760H599h5-4 160Zm-240 0q0-33 23.5-56.5T600-840h160q33 0 56.5 23.5T840-760v400h-80v-400H600v640q-33 0-56.5-23.5T520-200v-560ZM200-120q-33 0-56.5-23.5T120-200v-560q0-33 23.5-56.5T200-840h160q33 0 56.5 23.5T440-760v560q0 33-23.5 56.5T360-120H200Zm160-640H200v560h160v-560Zm0 0H200h160ZM760-40v-80h-80v-80h80v-80h80v80h80v80h-80v80h-80Z"
     id="path1"
     style="fill:#000000" />
</svg>
