<?xml version="1.0" encoding="UTF-8" standalone="no"?>
<svg
   xml:space="preserve"
   version="1.1"
   style="image-rendering:optimizeQuality;shape-rendering:geometricPrecision;text-rendering:geometricPrecision"
   viewBox="0 0 9.9999995 10"
   x="0px"
   y="0px"
   fill-rule="evenodd"
   clip-rule="evenodd"
   id="svg2"
   sodipodi:docname="swear.svg"
   width="10"
   height="10"
   inkscape:version="1.3.2 (091e20ef0f, 2023-11-25, custom)"
   xmlns:inkscape="http://www.inkscape.org/namespaces/inkscape"
   xmlns:sodipodi="http://sodipodi.sourceforge.net/DTD/sodipodi-0.dtd"
   xmlns="http://www.w3.org/2000/svg"
   xmlns:svg="http://www.w3.org/2000/svg"><sodipodi:namedview
     id="namedview2"
     pagecolor="#ffffff"
     bordercolor="#999999"
     borderopacity="1"
     inkscape:showpageshadow="0"
     inkscape:pageopacity="0"
     inkscape:pagecheckerboard="0"
     inkscape:deskcolor="#d1d1d1"
     inkscape:zoom="79.937637"
     inkscape:cx="6.1735625"
     inkscape:cy="5.291625"
     inkscape:window-width="1920"
     inkscape:window-height="1050"
     inkscape:window-x="0"
     inkscape:window-y="0"
     inkscape:window-maximized="1"
     inkscape:current-layer="svg2" /><defs
     id="defs1"><style
       type="text/css"
       id="style1">
   
    .fil0 {fill:black;fill-rule:nonzero}
   
  </style></defs><g
     id="g1"
     transform="matrix(1.3619833,0,0,1.3619833,-0.76560604,-0.76563298)"
     style="fill:#000000"><path
       class="fil0"
       d="M 6.7148,4.2723 C 6.7028,4.2272 6.7296,4.1808 6.7747,4.1688 6.8198,4.1568 6.8662,4.1836 6.8782,4.2287 L 6.8821,4.2431 C 6.8941,4.2882 6.8673,4.3346 6.8222,4.3466 6.7771,4.3586 6.7307,4.3318 6.7187,4.2867 Z M 6.2506,2.5397 C 6.2386,2.4946 6.2654,2.4482 6.3105,2.4362 6.3556,2.4242 6.402,2.451 6.414,2.4961 L 6.7573,3.7773 C 6.7693,3.8224 6.7425,3.8688 6.6974,3.8808 6.6523,3.8928 6.6059,3.866 6.5939,3.8209 Z M 5.4192,4.5503 C 5.4312,4.5954 5.4044,4.6418 5.3593,4.6538 5.3142,4.6658 5.2678,4.639 5.2558,4.5939 L 5.065,3.882 4.5437,4.4033 c -0.033,0.033 -0.0868,0.033 -0.1198,0 -0.033,-0.033 -0.033,-0.0868 0,-0.1198 L 4.9452,3.7622 4.2332,3.5714 C 4.1881,3.5594 4.1613,3.513 4.1733,3.4679 4.1853,3.4228 4.2317,3.396 4.2768,3.408 L 4.9892,3.5989 4.7983,2.8864 C 4.7863,2.8413 4.8131,2.7949 4.8582,2.7829 4.9033,2.7709 4.9497,2.7977 4.9617,2.8428 L 5.1525,3.5549 5.6739,3.0335 c 0.033,-0.033 0.0868,-0.033 0.1198,0 0.033,0.033 0.033,0.0868 0,0.1198 L 5.2723,3.6747 5.9843,3.8655 C 6.0294,3.8775 6.0562,3.9239 6.0442,3.969 6.0322,4.0141 5.9858,4.0409 5.9407,4.0289 L 5.2284,3.838 Z M 1.8125,4.2732 C 1.7674,4.2852 1.721,4.2584 1.709,4.2133 1.697,4.1682 1.7238,4.1218 1.7689,4.1098 L 2.1863,3.998 V 3.6061 c 0,-0.0467 0.038,-0.0847 0.0847,-0.0847 0.0467,0 0.0847,0.038 0.0847,0.0847 V 3.9526 L 3.2736,3.7066 V 3.3149 c 0,-0.0465 0.0378,-0.0843 0.0843,-0.0843 0.0465,0 0.0843,0.0378 0.0843,0.0843 V 3.6614 L 3.6084,3.6169 C 3.6535,3.6049 3.6999,3.6317 3.7119,3.6768 3.7239,3.7219 3.6971,3.7683 3.652,3.7803 L 3.4422,3.8365 3.4421,4.4935 3.8164,4.3932 C 3.8615,4.3812 3.9079,4.408 3.9199,4.4531 3.9319,4.4982 3.9051,4.5446 3.86,4.5566 l -0.4179,0.112 v 0.3916 c 0,0.0465 -0.0378,0.0843 -0.0843,0.0843 -0.0465,0 -0.0843,-0.0378 -0.0843,-0.0843 V 4.7137 l -0.9178,0.246 v 0.3917 c 0,0.0467 -0.038,0.0847 -0.0847,0.0847 -0.0467,0 -0.0847,-0.038 -0.0847,-0.0847 V 5.0051 L 2.0205,5.0495 C 1.9754,5.0615 1.929,5.0347 1.917,4.9896 1.905,4.9445 1.9318,4.8981 1.9769,4.8861 L 2.1863,4.83 V 4.173 Z M 3.2736,3.8817 2.3557,4.1276 v 0.657 L 3.2735,4.5387 Z M 6.309,1.2768 1.0763,2.6789 C 0.9485,2.7131 0.8461,2.7967 0.7844,2.9036 0.7228,3.0103 0.7016,3.1409 0.7359,3.2688 L 1.5678,6.3734 C 1.602,6.501 1.6857,6.6034 1.7925,6.6651 1.8993,6.7268 2.0299,6.748 2.1576,6.7138 L 3.9527,6.2328 C 3.9782,6.2263 4.0063,6.2314 4.0281,6.2494 L 5.1902,7.2061 5.716,5.8026 C 5.7239,5.7751 5.7457,5.7523 5.7754,5.7444 L 7.3904,5.3117 C 7.5176,5.2777 7.6199,5.1938 7.6817,5.0867 7.7434,4.9798 7.7649,4.8493 7.7308,4.7219 L 6.8989,1.6172 C 6.8647,1.4894 6.7811,1.387 6.6742,1.3253 6.5675,1.2637 6.4369,1.2425 6.309,1.2768 Z"
       id="path1"
       style="fill:#000000" /></g></svg>
